<svg xmlns="http://www.w3.org/2000/svg" viewBox="0 0 197.89 174"><defs><style>.a{fill:#fff;}</style></defs><title>Asset 1</title><path class="a" d="M48.72,109.92c.79,0,1.57-.09,2.33-.19C61.2,108.39,74.3,98.29,69.2,81.65a81.71,81.71,0,0,0-4-10.77c10.42-9.6,10-15.3,8-19C69,44.07,58.53,47.09,55.75,57.5c-1.1,4.14.74,10.28,3,16.75l.18.53.1.27.19.56c3.25,9.48,6,20.52,2.5,25.7-2.57,3.82-6.73,5.83-11.18,6.52,5.83-5.69,11.25-18.72,4.24-28.36L54.43,79a18.91,18.91,0,0,0-1.89-2.09c-5.36-5.1-18.33-5.13-23.83,6.23A16.86,16.86,0,0,0,27.15,92l.06.55c1,8.81,8.47,17.27,20.51,17.43ZM62.4,53.84c3-3.78,7.56-4,9.34-.39,2.17,4.39-1.11,10.08-6,15.18l-1.08,1C61.22,62.36,59.92,57,62.4,53.84ZM30.77,92.06l0-.56a13.32,13.32,0,0,1,.44-3.56c2.2-8.25,10.31-11.69,16.5-9.21a13.27,13.27,0,0,1,4,2.48l.4.39c6.61,6.57,3.6,19.12-3.3,26.24-.06,0,.12.11.06.11C37.8,107.73,31.14,99.76,30.77,92.06Z"/><path class="a" d="M70.21,117l.36-.37c5.29-4.88,5.66-9,4.57-11.28-2.39-5.1-9-3-10.72,3.5-.69,2.6.46,6.45,1.87,10.51l.12.33.06.18.2.57c2,5.89,3.65,12.68,1.49,15.89a9.83,9.83,0,0,1-8.07,4.16,11.45,11.45,0,0,1-10.23-6l-.24-.5a9.11,9.11,0,0,1-.6-6.08c1.38-5.18,6.47-7.33,10.35-5.78a8.71,8.71,0,0,1,2.83,1.76l.38.4a7.82,7.82,0,0,1,1.84,5.92c-.07,1-.78,2.75-1.52,1.66a1.92,1.92,0,1,0-2.07,2.55c2.15.56,3.75-1.32,4.14-2.12a9.7,9.7,0,0,0-.93-9.37l-.32-.45A11,11,0,0,0,62.4,121c-3.36-3.2-11.5-3.22-15,3.91a11.26,11.26,0,0,0,.44,10.21l.28.48a12.9,12.9,0,0,0,11.33,6.13s1.34-.07,2-.15C67.83,140.74,76,134.4,72.85,124A60.27,60.27,0,0,0,70.21,117Zm-1.63-10.44c1.86-2.37,4.52-2.65,5.64-.39,1.36,2.76-.61,6-3.7,9.19l-.72.72C67.8,111.64,67,108.5,68.58,106.52Z"/><path class="a" d="M94.23,45.44c3.51.79,10.58-1.15,11.64-11.86a16.22,16.22,0,0,0-.08-2.81c.75.27,4.8-.27,5.69-1.58-1.89,5.58-2.83,8.39-4.48,14.2l-.17.93s0,.2.21.17.94-.23,1.85-.38h0c1.29-.18,2.39-.26,2.39-.26.38-2.95,2.69-9.08,3.08-10.4a31.77,31.77,0,0,1,1.81-5.26c1.73-3.11,4.69-4.6,6.14-3.6,1.6.94-.1,3.91-1.28,7.31-1.61,4.64-2.73,7.9-1.86,9.33.53.86,1.68,1.52,3.58,1.19,2.36-.4,6-2.92,7.66-6.16.41,2.62,1.78,4.38,4.16,4.92a6.74,6.74,0,0,0,5.9-1.65c-.34,1.59-.66,3.1-.71,3.11-10.44,2.26-15.54,3.72-17.82,7-3,4.37-.88,10.43,4.06,11.66,10.1,2.53,14.46-7.88,17.13-18.25,0,0,.59-2.36.9-3.71.66-2.88,1.18-5.15,1.59-7q.22-.79.38-1.66c.77-3.36,1.08-4.66,1.34-5.38a3.4,3.4,0,0,1,.69-1.26c.64-.8.16-2.6-.14-3a1.41,1.41,0,0,0-2.13-.34c-1.44,1-1.62,3.3-2.77,7.46-.61,2.21-1.47,6.15-2.15,9.36a2.18,2.18,0,0,1-.22.65,3.41,3.41,0,0,1-4.6.42c-3.14-2.94-1.61-8.6-.52-11.24a10.18,10.18,0,0,1,3.61-4.81,1.26,1.26,0,0,1,1.52,0c.17.18.31.83.92.93,1.44.24,1.86-1.27,1.11-2.21a3.41,3.41,0,0,0-2.69-1c-2.13,0-4.44,1.5-6.25,3.82a19.08,19.08,0,0,0-3.11,6.55,15.48,15.48,0,0,0-.39,2.31,12.2,12.2,0,0,0-.07,1.77c-1.82,3.22-4.81,5.38-6.51,5-2.16-.43.36-5,1.43-8,1.51-4.22,1.57-5.27,1.35-6.68-.4-2.55-3.34-3-5.08-2.62a7.41,7.41,0,0,0-4.53,2.83c.26-.77,0-.05.64-1.75,0,0,1.11-2.19-1.86-.4h0c-1.11.7-2.55,1.42-2.72,1.94s-.07.25-.27.83c-1.63,2.59-5,3.15-7.15,3-.77-3.06-2.58-4.06-3.27-4.32a2.31,2.31,0,0,0-3,2.61,3,3,0,0,0,1.72,2.33,6.34,6.34,0,0,0,2,.85,8.57,8.57,0,0,1,.52,4.26,9.63,9.63,0,0,1-3.36,6.66c-2.38,1.83-6.62,1-6.92-3a14.45,14.45,0,0,1,1.51-7.38A13,13,0,0,1,97.47,27c.94-.9,1.26-2.18-.18-2A7.63,7.63,0,0,0,95,26c-1.61,1.1-3.72,3.45-4.94,7.63C88.12,40.48,90.72,44.66,94.23,45.44Zm31,14.18c-3.21-1.35-3.25-6,.3-9.77,2.81-3,8.18-4.63,14-5.92C136.74,55.13,130.88,62,125.23,59.62Z"/><path class="a" d="M55.34,48.21a20.07,20.07,0,0,0,11-6.58,119.71,119.71,0,0,1,12.31,5.71c11.37,5.9,19.78,8.77,25.71,8.77a16,16,0,0,0,5.48-1,12.74,12.74,0,0,0,6.67-4.39,3.56,3.56,0,0,0,.72-3.8,2.77,2.77,0,0,0-4-1.24A2.74,2.74,0,0,0,112,48.41a2.07,2.07,0,0,0,1.79,1.86c.34,0,.26.16.26.32,0,.8-2.47,2.36-4.52,3.13a13.8,13.8,0,0,1-4.71.68c-3.35,0-8.81-.81-15.78-4.69-3.13-1.74-5.74-3.27-8-4.62-5.09-3-8.5-5-12.39-6.27a58.08,58.08,0,0,0,4.08-6.59l0-.07c1.35-2.46,3.55-9.05,5.49-14.87,1.66-5,3.22-9.69,3.9-10.7C83.79,4.1,85.86,3,87.88,3.65a3.42,3.42,0,0,1,2.48,2.81,2.84,2.84,0,0,1-1.47,3.12,2.78,2.78,0,0,1-1.3.23,1.84,1.84,0,0,1-1.35-.63l-.06-.06a2.36,2.36,0,0,1-.29-.4l-.09-.18-.2,0a2.29,2.29,0,0,0-1.92,2.56,3.14,3.14,0,0,0,3.57,2.72,5,5,0,0,0,3.84-2,6.28,6.28,0,0,0,1-5.52,6,6,0,0,0-5.92-4.38,6.87,6.87,0,0,0-1.2.11c-5.64,1-7.5,5.48-8.74,8.44-.18.43-.35.84-.51,1.19-.31.67-.9,2.16-1.65,4.06-2,4.93-5.21,13.17-7.52,16.89-.78,1.27-1.46,2.41-2.08,3.44l-.91,1.52a24.24,24.24,0,0,0-3.77-.32c-4.78,0-7.81,1.51-9.66,3a5,5,0,0,0-1.49,5.3C49.45,47.83,52.21,48.81,55.34,48.21Zm-5.45-4.28c.3-2.1,2.62-4.32,6.34-4.32a21.78,21.78,0,0,1,5.68.62A15.23,15.23,0,0,1,60.51,42c-3.59,3.8-6.49,5.28-9,4.56A2.18,2.18,0,0,1,49.89,43.93Z"/><path class="a" d="M131.6,113.46a.62.62,0,0,1-.1-1.23c6.53-1.1,39.94-7.57,56.82-26.74,10.5-11.93,10.1-26.82,4.27-35.37-4.39-6.45-11.23-8.77-18.31-6.22-4.06,1.47-5.4,4-5.82,5.88a7.22,7.22,0,0,0,1.73,6.48,6.74,6.74,0,0,0,6.59,1.27,3.4,3.4,0,0,0,2.43-2.94.62.62,0,1,1,1.23.11,4.58,4.58,0,0,1-3.24,4,8,8,0,0,1-7.89-1.55,8.39,8.39,0,0,1-2.06-7.62c.68-3.07,3-5.47,6.61-6.77,7.63-2.76,15-.26,19.74,6.68,6.09,8.94,6.55,24.49-4.36,36.88-17.16,19.49-50.94,26-57.54,27.15Z"/><path class="a" d="M196.07,90.69c-2.77-7-9-10.83-16.7-10.14-9.41.84-13.64,7.75-13.6,13.82,0,5.44,3.55,11.54,11.14,12.09,6.63.48,10.4-2.94,11.72-6.3.67-1.71.6-3.22-.18-3.84a.62.62,0,1,0-.77,1c.19.16.34,1.06-.2,2.43-1.16,3-4.52,6-10.48,5.52-6.81-.49-10-6-10-10.87,0-5.71,3.79-11.81,12.47-12.58,7.11-.63,12.88,2.87,15.44,9.37,2.84,7.19,1.4,18.44-8.47,26.14-9.66,7.54-27.62,14.58-47.54,18.86.24-.27.55-.61.9-1.06C146.06,127.71,150.64,117,154,107l.21-.65c3.52-10.75,5.59-20.56,6.73-24.36,1.06-3.52,3.16-12.34,6.09-15.34a4.35,4.35,0,0,0,1-.92,1.86,1.86,0,0,0-.06-2.46c-1.33-1.32-4.25-.67-5.66,1.22A17.53,17.53,0,0,0,160,68.69c-2.77,7-3.45,12.3-4.65,15-1,2.35-4.15,6-7.18,6.36a4.58,4.58,0,0,1-4.81-1.92c-1.51-2.82,1.05-8.05,2-10.53,1.58-4.33,3.3-7.56,3.09-10.24,0,0-.17-2.4-2-2.71a2.73,2.73,0,0,0-2.5.58c-.58.53-.62,1.69-.65,2.69a46.56,46.56,0,0,1-2.72,8.72,29.24,29.24,0,0,0-2.43,7.73c-.14,1-7,7.82-10.17,6.57s-1.62-5.21.3-9.22c2.24-4.67,5.22-10.38,4-12.72a3.45,3.45,0,0,0-3.16-2,16.47,16.47,0,0,0-4.19.55,37.44,37.44,0,0,1-5.19,1.07h-.05c-.19,0-.48,0-.46-.13.27-2.17.07-4.43-1.58-4.37a2.09,2.09,0,0,0-2,2.26c0,1.53-.11,3.58,1.67,4.19a6.12,6.12,0,0,1-3.91,3.7,8.05,8.05,0,0,0-4.12-4.84,2.86,2.86,0,0,0-3.79,3.31A3.59,3.59,0,0,0,108,75.56a7.78,7.78,0,0,0,1.79.41,11.57,11.57,0,0,1,1.08,6.36c-.28,3.73-1.7,7-4.17,8.9s-7,2.59-8.53-2.47c-1.24-4.12-.08-7.58,1.1-10.72a15.43,15.43,0,0,1,4-5.69c1.21-1.15,1.61-2.79-.23-2.54a9.77,9.77,0,0,0-2.86,1.28c-2.06,1.4-4.77,4.41-6.32,9.77A16.24,16.24,0,0,0,93,88c-2.49,4.11-6.72,8.4-9.5,8.06a3.07,3.07,0,0,1-2.54-3.33c0-4.29,2.86-11.69,4.73-16.59.09-.23,5.42-14.06,5.44-14.21a.9.9,0,0,0-.08-.58c-.1-.17-.45-.13-.94,0a17.36,17.36,0,0,1-1.87.45c-.75.16-2,.42-2.37.48a.86.86,0,0,0-.63.34,3.81,3.81,0,0,0-.34.74c-.62,1.79-3.34,9.41-4.88,13.7-2.09,5.85-6.31,14.73-3.77,19.4,1,1.89,4.16,2.88,7.29,2s7.07-4.33,9.81-8.58A7.4,7.4,0,0,0,99.07,96c4.49,1,13.4-2.25,14.9-15.17a12.08,12.08,0,0,0-.16-5,7.87,7.87,0,0,0,5-4.8,28.61,28.61,0,0,0,5.26-1c1.23-.27,2.81-.4,3.21.6s.34,2.39-3.54,9.39c-2.06,3.71-3.94,8.65-2.09,11.28a5.22,5.22,0,0,0,4.12,2.34c5.82.3,10.32-4,12.1-6.37.06-.07,0-.69.2.67a6.3,6.3,0,0,0,4.47,4.54,10,10,0,0,0,6.71-.54,11,11,0,0,0,5.42-4.59l.07-.21c-.37,1.1-1.81,9.05-5.36,20.89a142.31,142.31,0,0,1-16.86,3.93c1-2.35,2.93-6.94,3.18-7.47s.12-1.05-.49-.87l-1.39.38s-1.77.42-2,.44a1.08,1.08,0,0,0-.78.56c-.57,1.55-1.92,5-2.86,7.45l-1.4.29a.5.5,0,0,0-.39.32c-.15.31-.33.77-.49,1.11s.15.34.15.34l1.44-.27a56.7,56.7,0,0,0-3.19,10.71c0,.21-.08.73-.09.76-.53,1.21-4.62,4.59-6,3.21-1.1-1.19-.07-3.1,1.33-5.65,1.55-2.82,4.16-7,3.06-9s-3.08-1.2-5.45-.63l-.47.11-.64.15a9.94,9.94,0,0,1-1.14.24c-.2.07-.6,0-.59,0,.09-1.26-.12-2.63-.92-2.8a1.85,1.85,0,0,0-2,1.74,2.22,2.22,0,0,0,1.37,2.54,2.82,2.82,0,0,1-1.23,2.33,3.4,3.4,0,0,1-2.26.62,4.32,4.32,0,0,0-2.73-3.21A1.88,1.88,0,0,0,104,117.4c.11,1.67,2.21,2.13,2.84,2.25a6.09,6.09,0,0,1,.73,4.21,9.18,9.18,0,0,1-2.15,5c-3,3.14-5.91.64-6.42-.92a9.33,9.33,0,0,1,.73-7,15.61,15.61,0,0,1,2.68-3.92c.82-.78,1.09-1.89-.16-1.72a6.7,6.7,0,0,0-1.93.87,11.84,11.84,0,0,0-4.51,6.6,12.19,12.19,0,0,0-.55,4.25c-.82,1.78-3.8,4.67-5.11,4.87-1.89.25.27-4.16,1.19-6.74,1.31-3.64,1.5-4.76,1.31-6-.34-2.2-3.05-2.85-4.52-2.37a7.74,7.74,0,0,0-3.77,2.54c.46-1.53,1.83-5.31,2.32-6.64a17.53,17.53,0,0,0,4-3.59c2.32-2.63,3.5-7,1.26-8-5.13-2.29-8.78,11.59-10.72,17-2.63,7.25-3.76,10.72-5.49,16.8l-.43,1.63s0,.17.19.15.79-.42,1.44-.73a6.62,6.62,0,0,1,.65-.25l.18-.05c1.24-.28,1.67-.34,1.67-.34.33-2.55,2.47-8.29,2.63-8.8s.82-3,1.29-4.1c1.1-2.59,4-4.66,5.33-3.92,1.65,1.1-.21,4.61-1,6.64-1.48,4-2.75,7.71-1.56,8.76.73.64,2.3.95,4-.1a16.19,16.19,0,0,0,5.35-5.07,5.33,5.33,0,0,0,4,4.29c3,.68,9.07-1.52,10.08-10.26a9.38,9.38,0,0,0-.16-3.07c3.43-.21,4.18-2.47,4.66-3.91a7.08,7.08,0,0,0,2.11-.41l.78-.16.31-.07a2.69,2.69,0,0,1,1.35-.1c1.39.39-1,4.17-2,5.94s-3.55,5.87-2.25,8.27A3.05,3.05,0,0,0,117,131c2.55.16,5.63-1.94,7.12-3.73,0,1.05.24,1.39,1.15,2.31a5.06,5.06,0,0,0,4.22.83,8.56,8.56,0,0,0,5-3.62,22.69,22.69,0,0,0,2.72-6.17.7.7,0,0,0-.44-.9.71.71,0,0,0-.54,0c-.17.08-.36.22-.36.4.12,2.95-2.89,8.72-6,8a2.27,2.27,0,0,1-1.65-2.68c.23-3.44,2.41-9.06,3.66-11.87,4.11-1,5.54-1.28,8.09-1.92a91.73,91.73,0,0,0,9.14-2.91A129.49,129.49,0,0,1,144,122.07c-3,5.77-6.6,11.67-7.91,13.12q-.86.95-1.75,1.88c-2,.39-29.55,4.16-34.24,5-23,3.66-20.83,11.35-20.5,12.41.69,2.19,3.43,3.84,7.68,4.39,5.89.76,12.25-.1,20.57-2.67,17.28-5.35,28.89-17.68,28.89-17.68l.75-.85c20.76-4.27,39.66-11.59,49.73-19.45C197.58,110.17,199.07,98.3,196.07,90.69ZM90.69,103.61c1.86-1.38,1.3,2.06.71,3a14.42,14.42,0,0,1-4.2,4.54C88.22,108.54,89.61,104.41,90.69,103.61ZM103,155.76c-9.28,2.57-20,1.71-20.84-2.33a3.31,3.31,0,0,1,0-1.54c3.32-6.37,16.25-8.32,33.69-10.8,3.92-.56,8.2-1.05,12.44-1.72q2.23-.35,4.45-.76A65.54,65.54,0,0,1,103,155.76Z"/><path class="a" d="M68.19,174a92,92,0,0,1-12.27-.79c-10.38-1.41-17.89-5.27-19.14-9.84-.58-2.11.27-4.19,2.39-5.86,2.51-2,5.36-2.33,6.77-1.65a1.27,1.27,0,0,1,.81,1.11.62.62,0,0,1-1.23.07,1.52,1.52,0,0,0-.74-.23,6.93,6.93,0,0,0-4.85,1.67c-1.2,1-2.52,2.52-2,4.57.92,3.35,6.88,7.42,18.12,8.94a102,102,0,0,0,39.68-2.93c-22-3.24-41.13-14.54-48.1-21C41.5,142.33,32.18,133,26.73,127.4q-1.78.91-3.7,1.74a6,6,0,0,1-6.8-1.22,3.85,3.85,0,0,1-.79-4.47A4.83,4.83,0,0,1,18.91,121c2-.29,4.1.72,6.28,3L27,125.89c12-6.31,19.33-15,22.69-18.93l.94-1.1a.62.62,0,0,1,.93.81l-.93,1.09c-3.37,4-10.76,12.65-22.73,19.05,5.47,5.6,14.58,14.73,20.63,20.35,7,6.46,26.26,17.82,48.41,20.82l1.81.24q2.07-.62,4.18-1.35c4.7-1.62,9.2-3.32,13.55-5,10.93-4.14,21.25-8.05,31-8.95,8-.73,13,2.65,13.75,6.38.63,3.08-1.42,7.26-9.08,9.74-13.59,4.4-29.35,3.59-53.33.41A107.73,107.73,0,0,1,68.19,174Zm33.45-5.4c22.32,2.86,37.27,3.46,50.13-.7,6.88-2.23,8.77-5.76,8.25-8.32-.65-3.19-5.13-6.07-12.42-5.4-9.6.88-19.38,4.58-30.7,8.87-4.36,1.65-8.87,3.36-13.59,5ZM19.55,122.23a3.32,3.32,0,0,0-.47,0A3.59,3.59,0,0,0,16.55,124a2.62,2.62,0,0,0,.59,3.06,4.77,4.77,0,0,0,5.4.93q1.69-.73,3.29-1.54l-1.53-1.58C22.62,123.14,21,122.23,19.55,122.23Z"/><path class="a" d="M23.16,144.81a24.26,24.26,0,0,1-17-6.38A19.2,19.2,0,0,1,.49,120.11a18.15,18.15,0,0,1,22-14c5.45,1.23,7.42,4.66,7.27,6.22a.62.62,0,0,1-1.23-.12c.07-.75-1.25-3.75-6.31-4.89-6.69-1.52-17.68.73-20.55,13.11A18,18,0,0,0,7,137.53c6,5.68,15.13,7.5,24.54,4.85,19.33-5.44,34.72-23,34.87-23.16a.62.62,0,1,1,.93.81c-.16.18-15.78,18-35.47,23.54A32.31,32.31,0,0,1,23.16,144.81Z"/><path class="a" d="M24.87,93.15a28.29,28.29,0,0,1-9.8-1.74c-6.74-2.47-11.3-7-13.19-13.08-2.43-7.81,0-16.23,3.44-21.11,6.2-8.73,15.9-12.63,24.46-16.06a89.39,89.39,0,0,0,8.93-3.95c3.72-9.94,9-20,16.59-24.46,2.93-1.72,4.51-.66,5.06-.12,1.43,1.42,1.33,4.29-.23,7l-.08.13c-1.54,2.67-5.15,8.91-19.19,17.64q-.56.35-1.15.68C38.25,42,37,45.86,36,49.35c-4.84,16.71-8.23,22.41-14,23.47-3.14.58-5-1.14-5.39-3.09a4.63,4.63,0,0,1,3.69-5.41A2.21,2.21,0,0,1,22.8,65a.92.92,0,0,1-.05,1.11.62.62,0,0,1-1.07-.53,1.27,1.27,0,0,0-1-.1,3.38,3.38,0,0,0-2.78,4c.28,1.28,1.48,2.6,4,2.14,5.15-1,8.31-6.45,13-22.6.91-3.14,2-6.58,3.22-10.08-2.37,1.18-5,2.26-7.84,3.38-8.4,3.37-17.92,7.2-23.91,15.63C3.14,62.42.77,70.59,3.06,78c1.77,5.71,6.08,10,12.44,12.29C33.85,97,51.28,81.45,57.84,75.61c.59-.53,1.08-1,1.47-1.29a.62.62,0,0,1,.8.94c-.38.32-.87.76-1.45,1.27C53.12,81.47,40,93.15,24.87,93.15ZM58.23,13a4.78,4.78,0,0,0-2.32.77C49,17.91,44,27,40.39,36.22,54,27.73,57.48,21.72,59,19.14L59,19c1.43-2.47,1.3-4.64.43-5.5A1.7,1.7,0,0,0,58.23,13Z"/><path class="a" d="M140.34,43.73a.62.62,0,0,1-.13-1.22c8.21-1.81,22.2-4.9,29.23-12.09-2.54-1.5-5.47-3.48-9-5.84-4.86-3.28-10.91-7.37-18.39-11.8-4-2.34-7.38-4.24-10.35-5.76-1.35.42-2.62.84-3.82,1.23-6.76,2.22-11.65,3.82-16.77,2.11a5.46,5.46,0,0,1-4-4.86A4.71,4.71,0,0,1,110.28,1c2.78-1.14,6.73-2.77,21.55,4.72a101.38,101.38,0,0,1,15.62-3.62c10.13-1.49,18.77,1.11,23.7,7.14a16.78,16.78,0,0,1,3,16.21,15.61,15.61,0,0,1-2.73,4.69A18.29,18.29,0,0,0,177,32.32c5,.83,11,.61,13-2.5a1.7,1.7,0,0,0,0-1.73.62.62,0,0,1-.08-1.23,1.14,1.14,0,0,1,1.14.59,2.93,2.93,0,0,1,0,3c-2.89,4.55-11.6,3.49-14.2,3.05a19.94,19.94,0,0,1-6.21-2.48c-7.24,7.62-21.63,10.8-30.06,12.66ZM133.41,6.52c2.74,1.43,5.82,3.15,9.3,5.21,7.51,4.45,13.57,8.54,18.45,11.84,3.59,2.42,6.57,4.44,9.12,5.93A14.55,14.55,0,0,0,173,25a15.54,15.54,0,0,0-2.75-15c-2.73-3.34-9.29-8.65-22.56-6.7A98.47,98.47,0,0,0,133.41,6.52ZM114.86,1.23a9.72,9.72,0,0,0-4.11.9,3.46,3.46,0,0,0-2.33,3.34,4.25,4.25,0,0,0,3.12,3.73c4.73,1.58,9.46,0,16-2.11l2.63-.85C122.18,2.3,117.71,1.23,114.86,1.23Z"/><path class="a" d="M77.37,76.74c-.4,0-.34-.51-.17-1s.37-1,.82-1.06l14.47-2c.58-.1.51.55.21,1.3a1,1,0,0,1-.82.72l-14.38,2Z"/><path class="a" d="M180,56.31s1-1.74.09-2.55-2,.21-1.65,1.23c.43,1.24-.77,2.63-3,2.9l1.65.38Z"/><path class="a" d="M44.9,155.58c.72.1,2.22.5,2.18,1.7a1.05,1.05,0,0,1-2,.3c-.58-1.18-2.75-.76-4.47.42l1.19-1.76A13.41,13.41,0,0,1,44.9,155.58Z"/><path class="a" d="M29.56,111c.24.69.57,2.2-.5,2.72s-1.85-.79-1.2-1.67c.78-1.05-.58-2.79-2.43-3.78l2.11.25A13.41,13.41,0,0,1,29.56,111Z"/><path class="a" d="M21,64.23c.72-.07,2.27,0,2.52,1.14a1.05,1.05,0,0,1-1.91.77c-.84-1-2.85-.1-4.25,1.45l.75-2A13.41,13.41,0,0,1,21,64.23Z"/><path class="a" d="M189,98.41c.21-1.17-.23-2.63-1.42-2.75a1.05,1.05,0,0,0-.55,2c1.1.72.63,2.31-.91,4.3l1.83-.88A12.6,12.6,0,0,0,189,98.41Z"/><path class="a" d="M191.12,30.15c.77-1.49.21-3.83-1.48-3.68a1.08,1.08,0,0,0-.31,2c.75.43.42,1.74-.61,2.59l0,1A4.29,4.29,0,0,0,191.12,30.15Z"/></svg>